<svg xmlns="http://www.w3.org/2000/svg" width="1024" height="1024" viewBox="0 0 1024 1024" version="1.1">
	<path d="M 197 171.932 C 187.543 174.831, 178.392 182.797, 174.170 191.804 L 171.500 197.500 171.500 462.500 C 171.500 714.562, 171.588 727.915, 173.312 736 C 181.720 775.433, 203.238 807.089, 237.029 829.736 C 247.592 836.815, 257.460 841.559, 270.879 846.007 C 293.528 853.515, 278.387 853.100, 517 852.748 C 716.638 852.454, 730.971 852.319, 737.748 850.676 C 794.031 837.027, 834.469 798.079, 849.330 743.207 L 852.500 731.500 852.500 464.500 L 852.500 197.500 849.591 191.200 C 846.310 184.093, 839.862 177.640, 832.280 173.874 L 827.500 171.500 513.500 171.333 C 340.800 171.241, 198.375 171.510, 197 171.932 M 327 398.965 C 322.325 399.968, 316.250 401.559, 313.500 402.500 C 260.564 420.616, 227.651 475.134, 236.544 529.973 C 243.509 572.921, 272.810 607.386, 314.500 621.667 C 324.707 625.163, 336.745 627.001, 349.381 626.992 C 362.608 626.983, 370.699 625.822, 381.500 622.382 C 420.076 610.096, 448.732 580.859, 459.264 543.043 L 461.500 535.015 512.171 535.008 L 562.841 535 563.490 538.250 C 564.982 545.715, 568.569 555.142, 573.739 565.188 C 593.292 603.177, 632.303 627.020, 674.860 626.992 C 689.445 626.983, 696.673 625.824, 710.259 621.319 C 768.591 601.975, 801.403 539.547, 784.422 480.219 C 781.324 469.397, 772.589 451.464, 766.537 443.500 C 755.154 428.522, 741.167 416.777, 725.500 409.042 C 706.025 399.426, 692.161 396.495, 670 397.306 C 652.237 397.957, 641.599 400.610, 625.500 408.407 C 595.287 423.040, 573.693 448.800, 564.761 480.867 L 562.500 488.985 512 488.985 L 461.500 488.985 459.264 480.957 C 455.864 468.748, 451.519 459.140, 444.742 448.842 C 437.754 438.225, 424.678 424.612, 414.812 417.684 C 401.223 408.141, 382.878 400.647, 366.668 398.016 C 356.790 396.413, 336.646 396.895, 327 398.965 M 334 444.496 C 320.587 447.499, 305.713 456.836, 296.335 468.141 C 275.974 492.684, 276.150 531.501, 296.733 556.226 C 331.443 597.920, 397.570 584.618, 414.677 532.500 C 416.873 525.809, 417.312 522.618, 417.358 513 C 417.424 499.264, 415.773 492.031, 409.885 480.266 C 402.139 464.789, 387.534 452.136, 370.976 446.560 C 360.556 443.051, 344.466 442.153, 334 444.496 M 658.500 444.964 C 644.025 448.797, 634.013 454.814, 624.094 465.639 C 604.113 487.444, 600.655 521.064, 615.724 547 C 627.554 567.362, 651.295 580.965, 675 580.965 C 695.654 580.965, 716.421 570.792, 728.585 554.716 C 738.245 541.948, 742.949 528.057, 742.983 512.197 C 743.063 473.647, 712.575 442.825, 674.590 443.055 C 669.094 443.088, 662.732 443.843, 658.500 444.964" stroke="none" fill="white" fill-rule="evenodd"/>
</svg>
